<svg id="facebook" xmlns="http://www.w3.org/2000/svg" width="24" height="24" viewBox="0 0 24 24">
  <path id="Path_41" data-name="Path 41" d="M291.157,508.668q-.15.024-.3.045Q291.007,508.692,291.157,508.668Zm0,0" transform="translate(-277.222 -484.824)" fill="#fff"/>
  <path id="Path_42" data-name="Path 42" d="M299.483,507.793l-.144.025Zm0,0" transform="translate(-285.308 -483.99)" fill="#fff"/>
  <path id="Path_43" data-name="Path 43" d="M277.963,510.34q-.176.02-.353.035Q277.787,510.36,277.963,510.34Zm0,0" transform="translate(-264.597 -486.418)" fill="#fff"/>
  <path id="Path_44" data-name="Path 44" d="M286.615,509.738l-.169.021Zm0,0" transform="translate(-273.018 -485.844)" fill="#fff"/>
  <path id="Path_45" data-name="Path 45" d="M306.791,506.41l-.127.027Zm0,0" transform="translate(-292.289 -482.673)" fill="#fff"/>
  <path id="Path_46" data-name="Path 46" d="M324.587,502.113l-.1.028Zm0,0" transform="translate(-309.274 -478.577)" fill="#fff"/>
  <path id="Path_47" data-name="Path 47" d="M319.17,503.543l-.111.029Zm0,0" transform="translate(-304.103 -479.94)" fill="#fff"/>
  <path id="Path_48" data-name="Path 48" d="M312.185,505.254l-.118.027Zm0,0" transform="translate(-297.438 -481.571)" fill="#fff"/>
  <path id="Path_49" data-name="Path 49" d="M273.67,511.09l-.19.014Zm0,0" transform="translate(-260.661 -487.133)" fill="#fff"/>
  <path id="Path_50" data-name="Path 50" d="M24,12A12,12,0,1,0,12,24l.211,0V14.656H9.633v-3h2.578V9.44a3.609,3.609,0,0,1,3.853-3.96,21.223,21.223,0,0,1,2.311.118v2.68H16.8c-1.244,0-1.485.591-1.485,1.459v1.914h2.975l-.388,3H15.312v8.881A12.006,12.006,0,0,0,24,12Zm0,0" fill="#fff"/>
  <path id="Path_51" data-name="Path 51" d="M265.267,511.43q-.188.012-.377.019Q265.08,511.442,265.267,511.43Zm0,0" transform="translate(-252.474 -487.456)" fill="#fff"/>
  <path id="Path_52" data-name="Path 52" d="M260.7,511.836l-.2,0Zm0,0" transform="translate(-248.293 -487.844)" fill="#fff"/>
</svg>
