<svg xmlns="http://www.w3.org/2000/svg" width="192" height="24" viewBox="0 0 192 24">
  <g id="icons" transform="translate(-1059 -39)">
    <g id="search" transform="translate(1059 40)">
      <g id="Group_5" data-name="Group 5">
        <path id="Path_1" data-name="Path 1" d="M23.707,21.367l-6.825-6.541A8.831,8.831,0,0,0,19,9.107,9.319,9.319,0,0,0,9.5,0,9.319,9.319,0,0,0,0,9.107a9.319,9.319,0,0,0,9.5,9.1,9.71,9.71,0,0,0,5.968-2.03l6.825,6.541a1.03,1.03,0,0,0,1.414,0A.929.929,0,0,0,23.707,21.367ZM9.5,16.295A7.356,7.356,0,0,1,2,9.107,7.356,7.356,0,0,1,9.5,1.92,7.356,7.356,0,0,1,17,9.107,7.356,7.356,0,0,1,9.5,16.295Z" transform="translate(0 -0.003)" fill="#fff"/>
      </g>
    </g>
    <g id="pin" transform="translate(1108 39)">
      <g id="Group_7" data-name="Group 7" transform="translate(0)">
        <g id="Group_6" data-name="Group 6">
          <path id="Path_2" data-name="Path 2" d="M84,0a8.237,8.237,0,0,0-8,8.438,8.765,8.765,0,0,0,1.194,4.437l6.35,10.793a.66.66,0,0,0,.566.332h.005a.661.661,0,0,0,.567-.342l6.189-10.9A8.779,8.779,0,0,0,92,8.438,8.237,8.237,0,0,0,84,0Zm5.727,12.038L84.1,21.946l-5.774-9.813a7.31,7.31,0,0,1-1-3.7,6.683,6.683,0,1,1,13.347,0A7.318,7.318,0,0,1,89.727,12.038Z" transform="translate(-76)" fill="#fff"/>
        </g>
      </g>
      <g id="Group_9" data-name="Group 9" transform="translate(3.783 4.22)">
        <g id="Group_8" data-name="Group 8">
          <path id="Path_3" data-name="Path 3" d="M170.217,90a4.217,4.217,0,1,0,4.217,4.217A4.222,4.222,0,0,0,170.217,90Zm0,7.038a2.821,2.821,0,1,1,2.816-2.821A2.823,2.823,0,0,1,170.217,97.038Z" transform="translate(-166 -90)" fill="#fff"/>
        </g>
      </g>
    </g>
    <g id="user" transform="translate(1149 39)">
      <g id="Group_10" data-name="Group 10">
        <path id="Path_4" data-name="Path 4" d="M20.485,15.515a11.954,11.954,0,0,0-4.56-2.86,6.938,6.938,0,1,0-7.85,0A12.019,12.019,0,0,0,0,24H1.875a10.125,10.125,0,1,1,20.25,0H24A11.922,11.922,0,0,0,20.485,15.515ZM12,12a5.063,5.063,0,1,1,5.062-5.062A5.068,5.068,0,0,1,12,12Z" transform="translate(0)" fill="#fff"/>
      </g>
    </g>
    <g id="bag" transform="translate(1198 39)">
      <g id="Group_12" data-name="Group 12" transform="translate(0 6.089)">
        <g id="Group_11" data-name="Group 11">
          <path id="Path_5" data-name="Path 5" d="M54.661,144.768,53.41,128.5a.752.752,0,0,0-.754-.69H35.707a.752.752,0,0,0-.754.69l-1.262,16.418a.741.741,0,0,0,.2.563.76.76,0,0,0,.554.239H53.933a.752.752,0,0,0,.756-.747A.73.73,0,0,0,54.661,144.768Zm-19.4-.542L36.408,129.3H51.955L53.1,144.226Z" transform="translate(-33.689 -127.808)" fill="#fff"/>
        </g>
      </g>
      <g id="Group_14" data-name="Group 14" transform="translate(4.394)">
        <g id="Group_13" data-name="Group 13">
          <path id="Path_6" data-name="Path 6" d="M133.833,0a6.106,6.106,0,0,0-6.1,6.1V9.139a.762.762,0,1,0,1.525,0V6.1a4.574,4.574,0,1,1,9.148,0V9.139a.762.762,0,0,0,1.525,0V6.1A6.106,6.106,0,0,0,133.833,0Z" transform="translate(-127.735)" fill="#fff"/>
        </g>
      </g>
    </g>
    <text id="_0_" data-name="(0)" transform="translate(1231 57)" fill="#fff" font-size="16" font-family="Lora-Regular, Lora"><tspan x="0" y="0">(0)</tspan></text>
  </g>
</svg>
